<svg width="526" height="154" viewBox="0 0 526 154" fill="none" xmlns="http://www.w3.org/2000/svg">
<path d="M154.192 120.792C150.437 120.792 147.109 120.067 144.208 118.616C141.307 117.08 139.045 114.904 137.424 112.088C135.803 109.272 134.992 105.773 134.992 101.592C134.992 97.9227 135.675 94.8507 137.04 92.376C138.491 89.9013 140.581 87.896 143.312 86.36C146.043 84.824 149.413 83.544 153.424 82.52C157.435 81.496 162 80.6 167.12 79.832C169.851 79.4053 172.069 79.0213 173.776 78.68C175.568 78.2533 176.891 77.6133 177.744 76.76C178.597 75.8213 179.024 74.4987 179.024 72.792C179.024 70.4027 178.171 68.3547 176.464 66.648C174.757 64.9413 172.069 64.088 168.4 64.088C165.925 64.088 163.621 64.5147 161.488 65.368C159.44 66.2213 157.648 67.5013 156.112 69.208C154.661 70.9147 153.595 73.0907 152.912 75.736L136.656 70.744C137.68 67.2453 139.131 64.216 141.008 61.656C142.971 59.096 145.317 56.9627 148.048 55.256C150.779 53.464 153.893 52.1413 157.392 51.288C160.891 50.4347 164.688 50.008 168.784 50.008C175.355 50.008 180.688 51.0747 184.784 53.208C188.965 55.256 192.08 58.4987 194.128 62.936C196.176 67.288 197.2 72.92 197.2 79.832V91.352C197.2 94.3387 197.243 97.368 197.328 100.44C197.499 103.512 197.669 106.627 197.84 109.784C198.096 112.856 198.352 115.928 198.608 119H182.352C182.011 116.867 181.669 114.435 181.328 111.704C181.072 108.888 180.859 106.072 180.688 103.256H178.384C177.189 106.499 175.483 109.443 173.264 112.088C171.045 114.733 168.315 116.867 165.072 118.488C161.915 120.024 158.288 120.792 154.192 120.792ZM162 107.48C163.621 107.48 165.243 107.181 166.864 106.584C168.571 105.987 170.192 105.176 171.728 104.152C173.349 103.043 174.8 101.677 176.08 100.056C177.445 98.4347 178.555 96.6 179.408 94.552L179.152 83.8L182.096 84.44C180.56 85.5493 178.768 86.4453 176.72 87.128C174.672 87.7253 172.539 88.1947 170.32 88.536C168.187 88.8773 166.053 89.2613 163.92 89.688C161.787 90.1147 159.867 90.6693 158.16 91.352C156.539 92.0347 155.216 92.9733 154.192 94.168C153.253 95.2773 152.784 96.856 152.784 98.904C152.784 101.549 153.637 103.64 155.344 105.176C157.051 106.712 159.269 107.48 162 107.48ZM238.021 120.792C232.389 120.792 227.44 119.341 223.173 116.44C218.992 113.539 215.749 109.443 213.445 104.152C211.141 98.8613 209.989 92.5893 209.989 85.336C209.989 78.5093 211.013 72.4507 213.061 67.16C215.109 61.8693 218.138 57.7307 222.149 54.744C226.16 51.7573 231.152 50.264 237.125 50.264C241.477 50.264 245.146 51.0747 248.133 52.696C251.12 54.3173 253.552 56.7067 255.429 59.864C257.392 62.936 258.928 66.648 260.037 71H262.981C262.384 68.2693 261.829 65.624 261.317 63.064C260.89 60.4187 260.549 57.9013 260.293 55.512C260.037 53.1227 259.909 51.032 259.909 49.24V27.48H278.341V85.976V119H262.981V99.544H260.421C259.482 104.323 258.032 108.291 256.069 111.448C254.106 114.605 251.589 116.952 248.517 118.488C245.53 120.024 242.032 120.792 238.021 120.792ZM244.165 105.688C246.981 105.688 249.37 105.091 251.333 103.896C253.296 102.701 254.917 101.165 256.197 99.288C257.477 97.3253 258.416 95.2347 259.013 93.016C259.61 90.712 259.909 88.5787 259.909 86.616V84.184C259.909 82.5627 259.653 80.8987 259.141 79.192C258.714 77.4 258.074 75.6507 257.221 73.944C256.368 72.2373 255.301 70.744 254.021 69.464C252.741 68.0987 251.248 67.032 249.541 66.264C247.834 65.496 245.957 65.112 243.909 65.112C240.837 65.112 238.234 65.9653 236.101 67.672C233.968 69.3787 232.304 71.768 231.109 74.84C229.914 77.8267 229.317 81.3253 229.317 85.336C229.317 89.432 229.914 93.016 231.109 96.088C232.389 99.16 234.138 101.549 236.357 103.256C238.576 104.877 241.178 105.688 244.165 105.688ZM300.443 119V75.992H289.819V62.424L307.739 63.192V60.76C304.752 60.0773 302.278 59.0107 300.315 57.56C298.438 56.024 297.072 54.1893 296.219 52.056C295.366 49.9227 294.939 47.6613 294.939 45.272C294.939 41.6027 295.878 38.4453 297.755 35.8C299.632 33.0693 302.278 30.9787 305.691 29.528C309.104 27.992 313.115 27.224 317.723 27.224C321.648 27.224 325.19 27.736 328.347 28.76C331.59 29.6987 334.192 30.8933 336.155 32.344L335.003 48.984C332.955 47.5333 330.651 46.3387 328.091 45.4C325.531 44.4613 323.099 43.992 320.795 43.992C318.235 43.992 316.102 44.6747 314.395 46.04C312.774 47.4053 311.963 49.624 311.963 52.696C311.963 54.8293 312.39 56.536 313.243 57.816C314.182 59.0107 315.291 59.9067 316.571 60.504C317.936 61.016 319.259 61.3573 320.539 61.528H335.899V75.992H318.363V119H300.443ZM346.448 119V27.48H364.624V119H346.448ZM404.357 120.792C396.506 120.792 390.576 118.147 386.565 112.856C382.64 107.48 380.677 99.3307 380.677 88.408V51.8H399.109V86.104C399.109 92.6747 400.09 97.5813 402.053 100.824C404.016 103.981 407.002 105.56 411.013 105.56C413.402 105.56 415.493 104.963 417.285 103.768C419.077 102.573 420.613 100.909 421.893 98.776C423.173 96.6427 424.112 94.1253 424.709 91.224C425.392 88.3227 425.776 85.208 425.861 81.88V51.8H444.293V91.608V119H429.445L429.317 98.008H427.013C425.733 103.299 424.112 107.651 422.149 111.064C420.272 114.392 417.84 116.867 414.853 118.488C411.952 120.024 408.453 120.792 404.357 120.792ZM454.542 119L476.814 85.336L454.542 51.8H475.79L488.078 77.144H490.254L502.542 51.8H523.662L501.39 85.336L523.918 119H502.798L490.254 93.528H488.078L475.79 119H454.542Z" fill="white"/>
<path d="M27.5 83C42.6878 83 55 95.3122 55 110.5C55 125.688 42.6878 138 27.5 138C12.3122 138 0 125.688 0 110.5C0 95.3122 12.3122 83 27.5 83ZM82.5 83C97.6878 83 110 95.3122 110 110.5C110 125.688 97.6878 138 82.5 138C67.3122 138 55 125.688 55 110.5C55 95.3122 67.3122 83 82.5 83ZM27.5 28C42.6878 28 55 40.3122 55 55.5C55 70.6878 42.6878 83 27.5 83C12.3122 83 0 70.6878 0 55.5C0 40.3122 12.3122 28 27.5 28ZM82.5 28C97.6878 28 110 40.3122 110 55.5C110 70.6878 97.6878 83 82.5 83C67.3122 83 55 70.6878 55 55.5C55 40.3122 67.3122 28 82.5 28Z" fill="white"/>
</svg>
